<mxfile host="app.diagrams.net" agent="Mozilla/5.0 (Windows NT 10.0; Win64; x64) AppleWebKit/537.36 (KHTML, like Gecko) Chrome/128.0.0.0 Safari/537.36" version="24.7.14">
  <diagram name="Page-1" id="C0R9g-Lt7026OcKnJThM">
    <mxGraphModel dx="1060" dy="445" grid="0" gridSize="10" guides="0" tooltips="1" connect="1" arrows="1" fold="1" page="1" pageScale="1" pageWidth="850" pageHeight="1100" math="0" shadow="0">
      <root>
        <mxCell id="0" />
        <mxCell id="1" parent="0" />
        <mxCell id="7IJ1zC4HfZnnREI6_RMZ-8" style="edgeStyle=orthogonalEdgeStyle;rounded=0;orthogonalLoop=1;jettySize=auto;html=1;exitX=1.017;exitY=0.633;exitDx=0;exitDy=0;entryX=0.75;entryY=1;entryDx=0;entryDy=0;exitPerimeter=0;" parent="1" target="7IJ1zC4HfZnnREI6_RMZ-9" edge="1">
          <mxGeometry relative="1" as="geometry">
            <mxPoint x="275" y="258" as="targetPoint" />
            <mxPoint x="465.03999999999996" y="235.98000000000002" as="sourcePoint" />
            <Array as="points">
              <mxPoint x="492" y="236" />
              <mxPoint x="492" y="278" />
              <mxPoint x="275" y="278" />
            </Array>
          </mxGeometry>
        </mxCell>
        <mxCell id="7IJ1zC4HfZnnREI6_RMZ-12" value="Payment Confirmation" style="edgeLabel;html=1;align=center;verticalAlign=middle;resizable=0;points=[];" parent="7IJ1zC4HfZnnREI6_RMZ-8" vertex="1" connectable="0">
          <mxGeometry x="0.0161" relative="1" as="geometry">
            <mxPoint as="offset" />
          </mxGeometry>
        </mxCell>
        <mxCell id="7IJ1zC4HfZnnREI6_RMZ-2" value="Payment&amp;nbsp;&lt;div&gt;Gateway&lt;/div&gt;&lt;div&gt;(receives payments to process &lt;span style=&quot;background-color: initial;&quot;&gt;)&lt;/span&gt;&lt;/div&gt;" style="rounded=1;whiteSpace=wrap;html=1;" parent="1" vertex="1">
          <mxGeometry x="352" y="190" width="120" height="60" as="geometry" />
        </mxCell>
        <mxCell id="7IJ1zC4HfZnnREI6_RMZ-9" value="Merchant&#39;s&amp;nbsp;&lt;div&gt;Website&lt;/div&gt;" style="rounded=1;whiteSpace=wrap;html=1;" parent="1" vertex="1">
          <mxGeometry x="185" y="190" width="120" height="60" as="geometry" />
        </mxCell>
        <mxCell id="7IJ1zC4HfZnnREI6_RMZ-10" value="" style="endArrow=classic;html=1;rounded=0;entryX=0;entryY=0.5;entryDx=0;entryDy=0;exitX=0.789;exitY=0.614;exitDx=0;exitDy=0;exitPerimeter=0;" parent="1" target="7IJ1zC4HfZnnREI6_RMZ-9" edge="1">
          <mxGeometry width="50" height="50" relative="1" as="geometry">
            <mxPoint x="88.55999999999995" y="219.24850000000004" as="sourcePoint" />
            <mxPoint x="192" y="290" as="targetPoint" />
          </mxGeometry>
        </mxCell>
        <mxCell id="BdJIAnpNLcfeEaUXAkMx-4" value="Payment&amp;nbsp;&lt;div&gt;details page&lt;/div&gt;" style="edgeLabel;html=1;align=center;verticalAlign=middle;resizable=0;points=[];" parent="7IJ1zC4HfZnnREI6_RMZ-10" vertex="1" connectable="0">
          <mxGeometry x="-0.6576" relative="1" as="geometry">
            <mxPoint x="139" y="-55" as="offset" />
          </mxGeometry>
        </mxCell>
        <mxCell id="7IJ1zC4HfZnnREI6_RMZ-11" value="" style="endArrow=classic;html=1;rounded=0;exitX=1;exitY=0.5;exitDx=0;exitDy=0;entryX=0;entryY=0.5;entryDx=0;entryDy=0;" parent="1" source="7IJ1zC4HfZnnREI6_RMZ-9" target="7IJ1zC4HfZnnREI6_RMZ-2" edge="1">
          <mxGeometry width="50" height="50" relative="1" as="geometry">
            <mxPoint x="312" y="340" as="sourcePoint" />
            <mxPoint x="362" y="290" as="targetPoint" />
          </mxGeometry>
        </mxCell>
        <mxCell id="7IJ1zC4HfZnnREI6_RMZ-14" value="" style="endArrow=classic;html=1;rounded=0;entryX=-0.037;entryY=0.507;entryDx=0;entryDy=0;entryPerimeter=0;" parent="1" target="7IJ1zC4HfZnnREI6_RMZ-13" edge="1">
          <mxGeometry width="50" height="50" relative="1" as="geometry">
            <mxPoint x="422" y="190" as="sourcePoint" />
            <mxPoint x="522" y="180" as="targetPoint" />
            <Array as="points">
              <mxPoint x="422" y="160" />
            </Array>
          </mxGeometry>
        </mxCell>
        <mxCell id="7IJ1zC4HfZnnREI6_RMZ-36" value="Request Sent&amp;nbsp;&lt;div&gt;to Validate&lt;/div&gt;&lt;div&gt;&lt;font style=&quot;font-size: 8px;&quot;&gt;(Card#, Expiry Date, CVV, ₹₹₹,&amp;nbsp; MID)&lt;/font&gt;&lt;/div&gt;" style="edgeLabel;html=1;align=center;verticalAlign=middle;resizable=0;points=[];" parent="7IJ1zC4HfZnnREI6_RMZ-14" vertex="1" connectable="0">
          <mxGeometry x="-0.2067" y="-2" relative="1" as="geometry">
            <mxPoint x="31" y="-4" as="offset" />
          </mxGeometry>
        </mxCell>
        <mxCell id="7IJ1zC4HfZnnREI6_RMZ-18" value="Card Network/Schema&lt;div&gt;Visa, Mastercard, Rupay etc&lt;/div&gt;" style="rounded=1;whiteSpace=wrap;html=1;" parent="1" vertex="1">
          <mxGeometry x="543" y="281" width="120" height="60" as="geometry" />
        </mxCell>
        <mxCell id="7IJ1zC4HfZnnREI6_RMZ-19" value="" style="endArrow=classic;html=1;rounded=0;exitX=0.6;exitY=1.056;exitDx=0;exitDy=0;exitPerimeter=0;entryX=0.75;entryY=0;entryDx=0;entryDy=0;" parent="1" source="7IJ1zC4HfZnnREI6_RMZ-13" target="7IJ1zC4HfZnnREI6_RMZ-18" edge="1">
          <mxGeometry width="50" height="50" relative="1" as="geometry">
            <mxPoint x="631.04" y="196.98199999999997" as="sourcePoint" />
            <mxPoint x="633" y="270" as="targetPoint" />
          </mxGeometry>
        </mxCell>
        <mxCell id="7IJ1zC4HfZnnREI6_RMZ-30" value="Routes through&lt;div&gt;Card Network&lt;/div&gt;" style="edgeLabel;html=1;align=center;verticalAlign=middle;resizable=0;points=[];" parent="7IJ1zC4HfZnnREI6_RMZ-19" vertex="1" connectable="0">
          <mxGeometry x="-0.0178" relative="1" as="geometry">
            <mxPoint y="9" as="offset" />
          </mxGeometry>
        </mxCell>
        <mxCell id="7IJ1zC4HfZnnREI6_RMZ-21" value="" style="endArrow=classic;html=1;rounded=0;exitX=0.5;exitY=1;exitDx=0;exitDy=0;entryX=0.5;entryY=0;entryDx=0;entryDy=0;entryPerimeter=0;" parent="1" source="7IJ1zC4HfZnnREI6_RMZ-18" target="7IJ1zC4HfZnnREI6_RMZ-20" edge="1">
          <mxGeometry width="50" height="50" relative="1" as="geometry">
            <mxPoint x="486" y="442" as="sourcePoint" />
            <mxPoint x="636" y="372" as="targetPoint" />
          </mxGeometry>
        </mxCell>
        <mxCell id="7IJ1zC4HfZnnREI6_RMZ-31" value="Issuing Bank&amp;nbsp;&lt;div&gt;for approval&lt;/div&gt;" style="edgeLabel;html=1;align=center;verticalAlign=middle;resizable=0;points=[];" parent="7IJ1zC4HfZnnREI6_RMZ-21" vertex="1" connectable="0">
          <mxGeometry x="0.027" y="-1" relative="1" as="geometry">
            <mxPoint as="offset" />
          </mxGeometry>
        </mxCell>
        <mxCell id="7IJ1zC4HfZnnREI6_RMZ-25" value="" style="group;fillColor=default;" parent="1" vertex="1" connectable="0">
          <mxGeometry x="584" y="106" width="80" height="87" as="geometry" />
        </mxCell>
        <mxCell id="7IJ1zC4HfZnnREI6_RMZ-13" value="" style="shape=mxgraph.signs.travel.bank;html=1;pointerEvents=1;fillColor=#000000;strokeColor=none;verticalLabelPosition=bottom;verticalAlign=top;align=center;" parent="7IJ1zC4HfZnnREI6_RMZ-25" vertex="1">
          <mxGeometry y="16" width="80" height="71" as="geometry" />
        </mxCell>
        <mxCell id="7IJ1zC4HfZnnREI6_RMZ-27" value="" style="group" parent="1" vertex="1" connectable="0">
          <mxGeometry x="565" y="396" width="80" height="84" as="geometry" />
        </mxCell>
        <mxCell id="7IJ1zC4HfZnnREI6_RMZ-20" value="" style="shape=mxgraph.signs.travel.bank;html=1;pointerEvents=1;fillColor=#000000;strokeColor=none;verticalLabelPosition=bottom;verticalAlign=top;align=center;" parent="7IJ1zC4HfZnnREI6_RMZ-27" vertex="1">
          <mxGeometry width="80" height="71" as="geometry" />
        </mxCell>
        <mxCell id="7IJ1zC4HfZnnREI6_RMZ-28" value="" style="endArrow=classic;html=1;rounded=0;entryX=0.996;entryY=0.666;entryDx=0;entryDy=0;exitX=0.97;exitY=0.65;exitDx=0;exitDy=0;exitPerimeter=0;entryPerimeter=0;" parent="1" source="7IJ1zC4HfZnnREI6_RMZ-20" target="7IJ1zC4HfZnnREI6_RMZ-18" edge="1">
          <mxGeometry width="50" height="50" relative="1" as="geometry">
            <mxPoint x="660.5999999999999" y="442.15" as="sourcePoint" />
            <mxPoint x="679.5999999999999" y="168.14999999999998" as="targetPoint" />
            <Array as="points">
              <mxPoint x="737" y="440" />
              <mxPoint x="737" y="321" />
            </Array>
          </mxGeometry>
        </mxCell>
        <mxCell id="7IJ1zC4HfZnnREI6_RMZ-29" value="Card Issuer checks funds/fraud-risk,&lt;div&gt;sends approval/decline&lt;div&gt;to Card Network&lt;/div&gt;&lt;/div&gt;" style="edgeLabel;html=1;align=center;verticalAlign=middle;resizable=0;points=[];" parent="7IJ1zC4HfZnnREI6_RMZ-28" vertex="1" connectable="0">
          <mxGeometry x="-0.0387" y="-2" relative="1" as="geometry">
            <mxPoint x="-2" as="offset" />
          </mxGeometry>
        </mxCell>
        <mxCell id="7IJ1zC4HfZnnREI6_RMZ-33" value="" style="endArrow=classic;html=1;rounded=0;exitX=0.213;exitY=0.887;exitDx=0;exitDy=0;exitPerimeter=0;entryX=1.042;entryY=0.367;entryDx=0;entryDy=0;entryPerimeter=0;" parent="1" source="7IJ1zC4HfZnnREI6_RMZ-13" target="7IJ1zC4HfZnnREI6_RMZ-2" edge="1">
          <mxGeometry width="50" height="50" relative="1" as="geometry">
            <mxPoint x="475" y="200" as="sourcePoint" />
            <mxPoint x="496" y="210" as="targetPoint" />
            <Array as="points">
              <mxPoint x="601" y="212" />
            </Array>
          </mxGeometry>
        </mxCell>
        <mxCell id="7IJ1zC4HfZnnREI6_RMZ-34" value="Payment&lt;div&gt;Acknowledgement&lt;/div&gt;" style="edgeLabel;html=1;align=center;verticalAlign=middle;resizable=0;points=[];" parent="7IJ1zC4HfZnnREI6_RMZ-33" vertex="1" connectable="0">
          <mxGeometry x="0.1883" y="1" relative="1" as="geometry">
            <mxPoint x="10" as="offset" />
          </mxGeometry>
        </mxCell>
        <mxCell id="7IJ1zC4HfZnnREI6_RMZ-40" value="1" style="ellipse;whiteSpace=wrap;html=1;aspect=fixed;" parent="1" vertex="1">
          <mxGeometry x="127" y="184" width="30" height="30" as="geometry" />
        </mxCell>
        <mxCell id="7IJ1zC4HfZnnREI6_RMZ-42" value="2" style="ellipse;whiteSpace=wrap;html=1;aspect=fixed;" parent="1" vertex="1">
          <mxGeometry x="310" y="184" width="30" height="30" as="geometry" />
        </mxCell>
        <mxCell id="7IJ1zC4HfZnnREI6_RMZ-43" value="3" style="ellipse;whiteSpace=wrap;html=1;aspect=fixed;" parent="1" vertex="1">
          <mxGeometry x="479" y="103" width="30" height="30" as="geometry" />
        </mxCell>
        <mxCell id="7IJ1zC4HfZnnREI6_RMZ-44" value="4" style="ellipse;whiteSpace=wrap;html=1;aspect=fixed;" parent="1" vertex="1">
          <mxGeometry x="636" y="199" width="30" height="30" as="geometry" />
        </mxCell>
        <mxCell id="7IJ1zC4HfZnnREI6_RMZ-45" value="5" style="ellipse;whiteSpace=wrap;html=1;aspect=fixed;" parent="1" vertex="1">
          <mxGeometry x="534" y="355" width="30" height="30" as="geometry" />
        </mxCell>
        <mxCell id="7IJ1zC4HfZnnREI6_RMZ-46" value="6" style="ellipse;whiteSpace=wrap;html=1;aspect=fixed;" parent="1" vertex="1">
          <mxGeometry x="747" y="341" width="30" height="30" as="geometry" />
        </mxCell>
        <mxCell id="7IJ1zC4HfZnnREI6_RMZ-47" value="7" style="ellipse;whiteSpace=wrap;html=1;aspect=fixed;" parent="1" vertex="1">
          <mxGeometry x="757" y="184" width="30" height="30" as="geometry" />
        </mxCell>
        <mxCell id="7IJ1zC4HfZnnREI6_RMZ-48" value="8" style="ellipse;whiteSpace=wrap;html=1;aspect=fixed;" parent="1" vertex="1">
          <mxGeometry x="527" y="229" width="30" height="30" as="geometry" />
        </mxCell>
        <mxCell id="7IJ1zC4HfZnnREI6_RMZ-51" value="" style="endArrow=classic;html=1;rounded=0;exitX=0.558;exitY=1.033;exitDx=0;exitDy=0;exitPerimeter=0;" parent="1" source="7IJ1zC4HfZnnREI6_RMZ-9" edge="1">
          <mxGeometry width="50" height="50" relative="1" as="geometry">
            <mxPoint x="202" y="385" as="sourcePoint" />
            <mxPoint x="137" y="320" as="targetPoint" />
            <Array as="points">
              <mxPoint x="252" y="320" />
            </Array>
          </mxGeometry>
        </mxCell>
        <mxCell id="7IJ1zC4HfZnnREI6_RMZ-52" value="Text" style="edgeLabel;html=1;align=center;verticalAlign=middle;resizable=0;points=[];" parent="7IJ1zC4HfZnnREI6_RMZ-51" vertex="1" connectable="0">
          <mxGeometry x="0.1373" y="1" relative="1" as="geometry">
            <mxPoint as="offset" />
          </mxGeometry>
        </mxCell>
        <mxCell id="7IJ1zC4HfZnnREI6_RMZ-54" value="Completes Sale &amp;amp;&lt;div&gt;Notifies Customer&lt;/div&gt;" style="edgeLabel;html=1;align=center;verticalAlign=middle;resizable=0;points=[];" parent="7IJ1zC4HfZnnREI6_RMZ-51" vertex="1" connectable="0">
          <mxGeometry x="0.172" y="2" relative="1" as="geometry">
            <mxPoint y="-1" as="offset" />
          </mxGeometry>
        </mxCell>
        <mxCell id="7IJ1zC4HfZnnREI6_RMZ-55" value="9" style="ellipse;whiteSpace=wrap;html=1;aspect=fixed;" parent="1" vertex="1">
          <mxGeometry x="387" y="290" width="30" height="30" as="geometry" />
        </mxCell>
        <mxCell id="7IJ1zC4HfZnnREI6_RMZ-17" value="Aquiring Bank" style="text;html=1;align=center;verticalAlign=middle;whiteSpace=wrap;rounded=0;" parent="1" vertex="1">
          <mxGeometry x="594" y="96" width="60" height="10" as="geometry" />
        </mxCell>
        <mxCell id="7IJ1zC4HfZnnREI6_RMZ-26" value="Issuing Bank" style="text;html=1;align=center;verticalAlign=middle;whiteSpace=wrap;rounded=0;" parent="1" vertex="1">
          <mxGeometry x="575" y="480" width="60" height="10" as="geometry" />
        </mxCell>
        <mxCell id="zWHSfJsqVY5s2pGkyumJ-1" value="Customer Visits&amp;nbsp;&lt;div&gt;Merchant&#39;s eCommerce&amp;nbsp;&lt;/div&gt;&lt;div&gt;for Payment&lt;/div&gt;" style="shape=umlActor;verticalLabelPosition=bottom;verticalAlign=top;html=1;outlineConnect=0;" vertex="1" parent="1">
          <mxGeometry x="57" y="190" width="30" height="60" as="geometry" />
        </mxCell>
        <mxCell id="zWHSfJsqVY5s2pGkyumJ-5" value="" style="endArrow=classic;html=1;rounded=0;entryX=0.996;entryY=0.666;entryDx=0;entryDy=0;exitX=1;exitY=0.25;exitDx=0;exitDy=0;entryPerimeter=0;" edge="1" parent="1" source="7IJ1zC4HfZnnREI6_RMZ-18">
          <mxGeometry width="50" height="50" relative="1" as="geometry">
            <mxPoint x="654" y="275" as="sourcePoint" />
            <mxPoint x="674" y="165" as="targetPoint" />
            <Array as="points">
              <mxPoint x="748" y="296" />
              <mxPoint x="748" y="165" />
            </Array>
          </mxGeometry>
        </mxCell>
        <mxCell id="zWHSfJsqVY5s2pGkyumJ-6" value="Card Network sends&lt;div&gt;response&lt;span style=&quot;white-space: pre;&quot;&gt;&#x9;&lt;/span&gt;to&amp;nbsp;&lt;/div&gt;&lt;div&gt;acquiring bank&lt;/div&gt;" style="edgeLabel;html=1;align=center;verticalAlign=middle;resizable=0;points=[];" vertex="1" connectable="0" parent="zWHSfJsqVY5s2pGkyumJ-5">
          <mxGeometry x="-0.0387" y="-2" relative="1" as="geometry">
            <mxPoint x="-3" y="-2" as="offset" />
          </mxGeometry>
        </mxCell>
        <mxCell id="zWHSfJsqVY5s2pGkyumJ-8" value="10" style="ellipse;whiteSpace=wrap;html=1;aspect=fixed;" vertex="1" parent="1">
          <mxGeometry x="187" y="341" width="30" height="30" as="geometry" />
        </mxCell>
      </root>
    </mxGraphModel>
  </diagram>
</mxfile>
